<svg xmlns="http://www.w3.org/2000/svg" viewBox="0 0 148.42 148.42"><defs><style>.cls-1{fill:#4353ff;}.cls-2{fill:none;}</style></defs><g id="Layer_2" data-name="Layer 2"><g id="Layer_1-2" data-name="Layer 1"><path class="cls-1" d="M81.62,39.61h0a4.94,4.94,0,0,0-3.06-1.11,6.39,6.39,0,0,0-4.26,1.91A6.41,6.41,0,0,0,70,38.5,4.89,4.89,0,0,0,67,39.61a5,5,0,0,0-1.88,3.67,5,5,0,0,0,1.51,3.82l7.7,7.37L82,47.09a5,5,0,0,0,1.48-3.82A5,5,0,0,0,81.62,39.61Zm-.31,6.76-7,6.71-7-6.7a4,4,0,0,1-1.21-3.05,4,4,0,0,1,1.51-2.94A3.88,3.88,0,0,1,70,39.5a5.75,5.75,0,0,1,3.92,2l.35.34.35-.34a5.71,5.71,0,0,1,3.91-2,4,4,0,0,1,2.76,6.87Z"/><path class="cls-1" d="M99,40l-.56.83A43.39,43.39,0,0,1,114.81,61.6h1.06A44.36,44.36,0,0,0,99,40Z"/><path class="cls-1" d="M50.09,40.81,49.53,40A44.48,44.48,0,0,0,32.7,61.6h1.07A43.37,43.37,0,0,1,50.09,40.81Z"/><rect class="cls-2" width="148.42" height="148.42"/></g></g></svg>